<svg width="312" height="35" viewBox="0 0 312 35" fill="none" xmlns="http://www.w3.org/2000/svg">
<g filter="url(#filter0_d)">
<line x1="4.12598" y1="12.9615" x2="121.049" y2="12.9615" stroke="#fff"/>
</g>
<g filter="url(#filter1_d)">
<path d="M163.693 0C162.25 0 160.914 0.691026 160.12 1.84984C159.071 3.3867 159.121 5.50801 158.52 6.8351C157.654 8.75112 153.992 7.21987 152.052 6.24728C148.651 12.5821 146.177 15.4583 144.049 17.9678C151.741 22.8117 146.18 19.3061 158.302 26.9231C160.728 22.446 163.369 18.6588 166.282 15.1891C164.482 13.797 161.583 11.2112 163.225 9.64183C164.395 8.52003 166.201 7.87163 167.25 6.33253C169.108 3.61106 167.046 0 163.693 0V0ZM157.44 23.7125L156.036 22.8566C156.036 22.1207 156.219 21.4005 156.529 20.7543C155.817 20.9809 155.273 21.295 154.637 21.9244L150.715 19.4216C151.335 18.633 151.807 17.6829 151.719 16.4062C151.155 17.3306 149.941 18.2247 148.994 18.3638L147.471 17.4495C148.799 15.8038 150.091 13.9877 151.279 12.1457L160.983 18.2729C159.698 20.0835 158.414 22.0455 157.44 23.7125V23.7125ZM165.302 5.10865C164.768 5.89391 162.443 7.23333 161.579 8.06122C160.783 8.82404 160.394 9.81234 160.455 10.9196C160.538 12.4385 161.452 14.0393 163.049 15.5021C162.814 15.7994 162.572 16.1112 162.326 16.4365L152.472 10.2128L153.061 9.22227C154.306 9.72147 155.517 9.98285 156.606 9.98285C158.531 9.98285 160.006 9.16058 160.657 7.7258C161.193 6.53894 161.535 3.85785 162.067 3.07596C163.477 1.01971 166.702 3.05689 165.302 5.10865V5.10865ZM164.549 4.63301C164.239 5.09295 163.598 5.21971 163.122 4.92131C162.644 4.62179 162.512 4.00817 162.824 3.54936C163.137 3.09054 163.775 2.96154 164.253 3.26106C164.73 3.55946 164.862 4.17756 164.549 4.63301V4.63301Z" fill="#fff"/>
<path d="M161.925 8.42225L161.925 8.42227C161.235 9.08368 160.901 9.9297 160.955 10.8916L160.955 10.8923C161.028 12.2323 161.843 13.7197 163.387 15.1334L163.729 15.4474L163.441 15.8122C163.208 16.107 162.968 16.4159 162.725 16.7378L162.448 17.1049L162.059 16.8593L152.205 10.6356L151.793 10.3756L152.042 9.95718L152.632 8.96663L152.85 8.59901L153.247 8.75818C154.447 9.23927 155.594 9.48285 156.606 9.48285C158.388 9.48285 159.652 8.73137 160.201 7.51955L161.925 8.42225ZM161.925 8.42225C162.26 8.10104 162.847 7.68746 163.491 7.23292C163.61 7.14881 163.732 7.06329 163.854 6.97669C164.232 6.70789 164.611 6.43296 164.932 6.173C165.241 5.92135 165.537 5.65155 165.715 5.3901M161.925 8.42225L165.715 5.3901M165.715 5.3901C166.144 4.76154 166.236 4.09712 166.066 3.49922C165.9 2.91538 165.495 2.43809 165.004 2.12876C164.024 1.51077 162.545 1.49461 161.654 2.79318L161.653 2.79469C161.474 3.05855 161.335 3.43756 161.219 3.82034C161.099 4.21643 160.986 4.67567 160.877 5.13283C160.862 5.19694 160.847 5.26087 160.831 5.32451C160.623 6.19804 160.428 7.01788 160.201 7.51945L165.715 5.3901ZM160.533 2.13168C161.23 1.11401 162.41 0.5 163.693 0.5C166.685 0.5 168.446 3.69425 166.837 6.05062L166.837 6.05097C166.368 6.73905 165.72 7.24258 165.002 7.72996C164.857 7.82864 164.706 7.92782 164.554 8.02848C163.98 8.40716 163.374 8.80689 162.88 9.28029C162.346 9.79032 162.171 10.4099 162.262 11.0453C162.348 11.648 162.666 12.2407 163.059 12.7773C163.735 13.6998 164.729 14.588 165.569 15.2636C162.867 18.5275 160.398 22.0796 158.118 26.217C152.705 22.8159 151.005 21.7502 149.941 21.083C148.788 20.3599 148.381 20.1049 144.803 17.8517C146.811 15.481 149.151 12.6346 152.264 6.90761C153.209 7.35915 154.44 7.87407 155.586 8.11383C156.25 8.25267 156.93 8.30938 157.526 8.17631C158.144 8.03833 158.682 7.69022 158.976 7.04111C159.242 6.45338 159.393 5.72179 159.537 5.01947C159.572 4.85311 159.606 4.6884 159.641 4.52763C159.833 3.64661 160.067 2.81461 160.533 2.13168ZM155.536 22.8566V23.1374L155.776 23.2835L157.18 24.1394L157.44 23.7125L157.872 23.9647C158.837 22.3131 160.112 20.3636 161.391 18.5623L161.696 18.1319L161.25 17.8501L151.546 11.7229L151.128 11.4585L150.859 11.8747C149.679 13.7043 148.397 15.5058 147.082 17.1355L146.721 17.5824L147.214 17.8782L148.736 18.7924L148.889 18.8844L149.066 18.8585C149.647 18.7731 150.263 18.4682 150.793 18.0845C150.869 18.0299 150.944 17.9729 151.017 17.9139C150.854 18.3553 150.609 18.7472 150.322 19.1123L149.98 19.5462L150.446 19.8432L154.368 22.3459L154.705 22.5607L154.989 22.2798C155.227 22.0446 155.447 21.8602 155.667 21.7105C155.582 22.0824 155.536 22.4666 155.536 22.8566ZM164.137 4.34961L164.549 4.63301L164.134 4.35365C163.981 4.5816 163.644 4.65814 163.388 4.4977L163.388 4.49757C163.145 4.34524 163.089 4.04984 163.238 3.83063C163.395 3.59989 163.731 3.52415 163.988 3.6848L163.988 3.68496C164.23 3.83607 164.285 4.13442 164.137 4.34961Z" stroke="#fff"/>
</g>
<g filter="url(#filter2_d)">
<line x1="190.951" y1="12.9615" x2="307.874" y2="12.9615" stroke="#fff"/>
</g>
<defs>
<filter id="filter0_d" x="0.125977" y="12.4615" width="124.923" height="9" filterUnits="userSpaceOnUse" color-interpolation-filters="sRGB">
<feFlood flood-opacity="0" result="BackgroundImageFix"/>
<feColorMatrix in="SourceAlpha" type="matrix" values="0 0 0 0 0 0 0 0 0 0 0 0 0 0 0 0 0 0 127 0"/>
<feOffset dy="4"/>
<feGaussianBlur stdDeviation="2"/>
<feColorMatrix type="matrix" values="0 0 0 0 0 0 0 0 0 0 0 0 0 0 0 0 0 0 0.25 0"/>
<feBlend mode="normal" in2="BackgroundImageFix" result="effect1_dropShadow"/>
<feBlend mode="normal" in="SourceGraphic" in2="effect1_dropShadow" result="shape"/>
</filter>
<filter id="filter1_d" x="140.049" y="0" width="31.9016" height="34.9231" filterUnits="userSpaceOnUse" color-interpolation-filters="sRGB">
<feFlood flood-opacity="0" result="BackgroundImageFix"/>
<feColorMatrix in="SourceAlpha" type="matrix" values="0 0 0 0 0 0 0 0 0 0 0 0 0 0 0 0 0 0 127 0"/>
<feOffset dy="4"/>
<feGaussianBlur stdDeviation="2"/>
<feColorMatrix type="matrix" values="0 0 0 0 0 0 0 0 0 0 0 0 0 0 0 0 0 0 0.25 0"/>
<feBlend mode="normal" in2="BackgroundImageFix" result="effect1_dropShadow"/>
<feBlend mode="normal" in="SourceGraphic" in2="effect1_dropShadow" result="shape"/>
</filter>
<filter id="filter2_d" x="186.951" y="12.4615" width="124.923" height="9" filterUnits="userSpaceOnUse" color-interpolation-filters="sRGB">
<feFlood flood-opacity="0" result="BackgroundImageFix"/>
<feColorMatrix in="SourceAlpha" type="matrix" values="0 0 0 0 0 0 0 0 0 0 0 0 0 0 0 0 0 0 127 0"/>
<feOffset dy="4"/>
<feGaussianBlur stdDeviation="2"/>
<feColorMatrix type="matrix" values="0 0 0 0 0 0 0 0 0 0 0 0 0 0 0 0 0 0 0.25 0"/>
<feBlend mode="normal" in2="BackgroundImageFix" result="effect1_dropShadow"/>
<feBlend mode="normal" in="SourceGraphic" in2="effect1_dropShadow" result="shape"/>
</filter>
</defs>
</svg>
