<?xml version="1.0" encoding="UTF-8" standalone="no"?> <svg id="Layer_1" data-name="Layer 1" xmlns="http://www.w3.org/2000/svg" viewBox="0 0 128 128"><defs><style>.cls-1{fill:#FB9614;}.cls-2{fill:#FB9614;}</style></defs><title>n</title><path class="cls-1" d="M120.24976,80.83968a24.14062,24.14062,0,1,0-40.11316,18.079v27.32679l15.05824-10.11294a1.63985,1.63985,0,0,1,1.82861,0l15.05824,10.11294V98.91875A24.08406,24.08406,0,0,0,120.24976,80.83968ZM96.10929,65.8169A15.02278,15.02278,0,1,1,81.08651,80.83968,15.03976,15.03976,0,0,1,96.10929,65.8169Z"/><path class="cls-1" d="M75.406,27.69866H32.70575a2.85021,2.85021,0,1,0,0,5.70041H75.406a2.85021,2.85021,0,1,0,0-5.70041Z"/><path class="cls-1" d="M75.406,47.77312H32.70575a2.85021,2.85021,0,1,0,0,5.70041H75.406a2.85021,2.85021,0,1,0,0-5.70041Z"/><path class="cls-1" d="M53.79268,67.84811H32.70575a2.85021,2.85021,0,1,0,0,5.70041H53.79268a2.85021,2.85021,0,1,0,0-5.70041Z"/><path class="cls-2" d="M96.11092,1.75453H12.00326a4.24843,4.24843,0,0,0-4.253,4.24526V107.3907a4.25008,4.25008,0,0,0,4.253,4.253H75.10144v-8.49828H16.25627V10.25281H91.8579V51.96968a29.33945,29.33945,0,0,1,8.506,0V5.99979A4.24846,4.24846,0,0,0,96.11092,1.75453Z"/></svg>