 <svg version="1.0" xmlns="http://www.w3.org/2000/svg" width="700.000000pt" height="146.000000pt" viewBox="0 0 700.000000 146.000000" preserveAspectRatio="xMidYMid meet">
<metadata>
Created by potrace 1.12, written by Peter Selinger 2001-2015
</metadata>
<g transform="translate(0.000000,146.000000) scale(0.100000,-0.100000)" fill="#000000" stroke="none">
<path d="M546 1398 c5 -7 -25 -8 -93 -3 -87 6 -103 5 -133 -12 -20 -11 -36
-29 -38 -41 -2 -12 -8 -22 -13 -22 -5 0 -9 -7 -9 -16 0 -9 -6 -14 -12 -11 -14
5 -13 50 1 55 5 2 7 12 4 23 -7 25 -42 22 -57 -6 -6 -11 -15 -23 -21 -27 -5
-4 -1 -15 9 -27 11 -12 14 -21 8 -21 -22 0 -12 -18 21 -41 17 -13 26 -16 20
-8 -7 9 -10 19 -6 22 13 13 21 7 21 -18 0 -18 -5 -25 -17 -23 -17 3 -18 -4 -5
-36 5 -14 4 -17 -4 -12 -7 4 -12 1 -12 -7 0 -8 -12 -31 -26 -52 -18 -28 -24
-46 -20 -66 4 -20 1 -31 -10 -37 -21 -11 -10 -52 14 -52 12 0 13 3 4 12 -7 7
-12 19 -12 27 0 8 3 11 7 8 3 -4 13 -1 22 6 14 10 14 10 4 -4 -10 -12 -10 -18
-1 -27 9 -9 8 -18 -2 -36 -7 -14 -17 -23 -22 -20 -14 9 -9 -13 7 -26 17 -14
12 -63 -8 -88 -16 -20 -16 -51 0 -63 10 -9 10 -15 2 -25 -14 -17 -3 -35 18
-27 11 4 14 3 9 -5 -4 -7 -15 -12 -24 -12 -9 0 -26 -7 -36 -15 -18 -13 -18
-15 -2 -21 10 -4 22 -2 29 5 14 14 27 14 27 1 0 -5 -6 -10 -14 -10 -9 0 -13
-14 -12 -49 2 -42 -1 -51 -19 -56 -18 -6 -18 -8 -3 -12 10 -2 18 -11 18 -19 0
-16 17 -19 22 -4 2 5 9 6 17 1 19 -12 4 -33 -19 -26 -13 4 -19 -1 -22 -20 -3
-14 -1 -25 3 -25 11 0 0 -31 -20 -53 -10 -12 -23 -16 -38 -12 -17 4 -23 1 -23
-10 0 -9 4 -13 10 -10 5 3 20 -1 33 -9 12 -9 36 -15 52 -15 17 1 66 -6 110
-15 50 -9 130 -15 215 -14 74 1 203 -5 285 -11 83 -7 204 -15 270 -17 236 -9
281 -12 330 -23 28 -6 56 -11 63 -11 38 3 79 2 187 -4 66 -4 152 -7 190 -6 70
1 213 -8 550 -35 182 -14 361 -14 715 0 107 4 362 9 565 10 304 2 382 0 437
-13 61 -14 70 -14 105 1 26 11 56 15 93 12 272 -22 275 -22 314 -9 24 9 43 11
50 5 6 -5 94 -11 194 -13 101 -2 186 -7 189 -11 2 -4 38 -5 79 -1 52 5 78 3
88 -6 12 -9 23 -9 52 0 20 7 56 10 80 6 24 -3 55 -1 69 4 19 7 36 6 62 -5 19
-8 40 -12 47 -8 21 14 160 28 246 25 66 -3 151 7 176 20 22 10 39 11 68 5 28
-7 57 -5 105 6 36 9 108 16 159 16 51 0 98 4 104 7 6 4 48 11 92 16 45 4 104
13 131 20 28 6 92 12 143 12 50 1 92 2 92 3 0 8 -69 33 -92 33 -29 0 -38 14
-14 23 19 7 9 47 -13 55 -9 3 -21 12 -27 20 -9 12 -14 12 -32 1 -12 -7 -24
-10 -28 -7 -10 11 6 28 27 28 10 0 19 6 19 13 0 8 9 22 20 32 11 10 18 21 15
23 -8 9 -45 10 -40 2 5 -8 -66 -22 -74 -15 -2 3 3 5 12 5 9 0 18 12 22 30 5
24 10 28 20 20 9 -8 14 -7 18 4 7 18 -1 26 -25 26 -28 0 -13 17 19 23 16 3 38
8 51 12 16 5 22 3 22 -8 0 -8 6 -17 14 -20 12 -5 13 -1 4 24 -7 22 -17 29 -36
30 -15 1 -48 2 -74 3 -52 2 -70 11 -40 20 14 5 18 13 15 26 -3 12 1 22 10 26
8 3 18 17 22 32 3 15 20 42 38 60 29 30 30 32 9 32 -12 0 -22 5 -22 10 0 6 5
10 10 10 6 0 10 3 10 8 0 4 -24 7 -54 8 -43 0 -60 5 -86 28 -18 15 -38 25 -45
22 -8 -3 -11 2 -8 15 7 24 19 33 28 19 3 -5 0 -10 -7 -10 -7 -1 2 -7 21 -16
40 -17 51 -11 28 14 -21 23 -21 32 -2 32 9 0 18 7 21 15 4 8 12 15 19 15 11 0
65 44 65 53 0 12 -68 -9 -82 -25 -16 -18 -19 -19 -40 -4 -12 9 -18 16 -13 17
6 1 -1 5 -15 9 -20 7 -16 8 23 9 35 1 47 5 47 16 0 8 -6 15 -12 15 -7 0 4 16
25 35 20 20 37 37 37 40 0 14 -36 2 -62 -20 -34 -29 -53 -32 -62 -9 -3 8 -9
13 -14 11 -4 -3 -16 1 -27 9 -18 13 -18 14 8 14 15 0 27 4 27 9 0 5 18 7 39 4
29 -4 44 -1 57 11 12 12 20 14 27 7 17 -17 45 -13 57 9 8 15 8 21 -2 25 -16 6
-66 0 -75 -8 -11 -12 -23 -8 -23 8 0 9 10 20 23 24 16 7 18 10 7 14 -47 16
-59 14 -76 -11 -15 -23 -18 -24 -29 -9 -7 9 -18 17 -26 17 -30 0 16 19 63 25
26 4 48 10 48 15 0 13 -37 19 -81 13 -23 -4 -50 -1 -63 7 -27 14 -58 11 -64
-7 -2 -8 5 -13 18 -13 12 0 19 -4 16 -9 -9 -14 -58 0 -52 15 9 23 -40 17 -90
-11 -24 -13 -44 -22 -44 -18 0 4 -5 2 -12 -5 -16 -16 -25 -15 -25 3 0 8 8 15
17 15 9 0 27 9 40 20 l23 20 -21 0 c-12 0 -22 -5 -22 -10 0 -7 -42 -11 -112
-11 -167 0 -172 0 -180 -13 -4 -6 -36 -11 -78 -11 -52 0 -73 -4 -80 -15 -15
-24 -12 -27 20 -22 23 3 30 0 30 -12 0 -12 -6 -15 -24 -10 -27 6 -45 -20 -20
-30 15 -6 11 -26 -5 -26 -4 0 -20 19 -34 41 -18 26 -22 39 -12 36 18 -7 31 11
18 24 -7 7 -27 6 -58 -2 -38 -9 -49 -9 -55 1 -5 8 -17 10 -36 6 -34 -9 -56
-25 -49 -36 3 -5 1 -11 -4 -15 -5 -3 -24 12 -41 33 -34 43 -58 45 -113 12
l-28 -18 35 -6 c21 -4 36 -13 36 -21 0 -11 -6 -12 -26 -5 -35 14 -87 13 -102
-2 -8 -8 -18 -9 -34 -1 -13 5 -41 9 -63 7 l-40 -2 33 14 c23 10 38 12 46 5 20
-17 77 2 95 32 13 21 13 21 -6 5 -24 -22 -33 -23 -33 -3 0 18 -12 19 -28 3 -8
-8 -15 -8 -24 -1 -22 18 -92 1 -103 -25 -5 -12 -15 -22 -22 -22 -21 0 -22 16
-2 33 31 27 22 37 -30 37 -54 0 -72 -12 -44 -30 15 -9 14 -9 -7 -5 -18 4 -34
-1 -52 -14 -27 -21 -85 -30 -73 -11 3 6 -4 14 -16 18 -15 6 -18 11 -11 16 19
12 14 29 -5 21 -10 -4 -27 -7 -38 -7 -11 1 -39 -5 -63 -13 -56 -19 -62 -19
-62 5 0 22 -23 26 -64 10 -34 -13 -33 -29 0 -22 19 3 25 1 20 -7 -4 -6 -28
-11 -53 -11 -40 0 -45 2 -40 20 6 24 9 24 -43 5 -34 -12 -46 -13 -58 -3 -13
11 -14 8 -7 -21 l7 -34 -32 7 c-18 3 -36 6 -41 6 -5 0 -9 5 -9 10 0 12 32 13
46 3 5 -5 1 0 -9 9 -29 27 -72 18 -65 -13 2 -10 -5 -13 -22 -11 -24 3 -24 2
-5 -13 18 -14 16 -14 -13 0 -28 14 -36 14 -49 3 -14 -11 -16 -10 -10 10 3 13
3 21 0 18 -4 -3 -13 0 -21 6 -8 7 -31 11 -52 9 -21 -1 -47 3 -59 11 -16 10
-23 10 -33 0 -6 -6 -18 -12 -26 -12 -12 0 -12 3 -2 15 14 17 8 19 -18 6 -9 -5
-25 -12 -34 -15 -10 -3 -18 -15 -18 -26 0 -24 -25 -27 -38 -4 -6 11 -14 14
-23 8 -8 -5 -25 -10 -39 -12 -29 -4 -40 -13 -22 -19 19 -7 14 -19 -8 -19 -11
0 -20 4 -20 8 0 4 -6 5 -14 2 -13 -5 -30 21 -22 35 3 4 -20 7 -50 8 -64 2 -80
-12 -25 -22 43 -7 67 -27 56 -45 -4 -6 -14 -8 -24 -4 -9 4 -35 10 -58 14 -39
6 -43 5 -43 -14 0 -17 -6 -21 -30 -20 -45 2 -45 2 -46 29 -2 19 3 25 20 25 29
0 50 15 41 29 -4 8 -11 9 -18 3 -17 -14 -67 -21 -73 -11 -3 5 -15 2 -28 -6
-12 -8 -34 -16 -48 -17 -15 -1 -25 -5 -22 -9 2 -4 0 -10 -5 -13 -16 -10 -23
14 -9 31 12 15 10 16 -14 9 -21 -5 -28 -3 -28 9 0 20 -12 19 -41 -3 -13 -10
-46 -30 -73 -45 -46 -26 -49 -26 -62 -10 -7 10 -11 24 -9 31 3 7 -4 12 -17 12
-17 0 -18 3 -8 14 9 12 8 17 -8 27 -12 8 -18 19 -14 28 4 10 -2 8 -17 -6 -18
-16 -31 -20 -57 -16 -27 4 -34 2 -32 -8 2 -9 -7 -15 -24 -17 -19 -2 -25 -8
-21 -18 8 -21 -21 -17 -42 6 -10 11 -31 20 -47 20 -15 0 -28 5 -28 12 0 6 -7
3 -15 -8 -11 -14 -17 -16 -23 -7 -5 7 -24 11 -50 8 -34 -3 -45 0 -55 16 -14
23 -40 25 -57 5 -11 -15 -39 -11 -51 6 -3 5 -19 3 -35 -3 -41 -17 -142 -18
-149 -1 -3 10 -14 12 -35 7 -19 -4 -36 -2 -45 5 -16 14 -112 8 -192 -11 -46
-11 -55 -10 -70 3 -16 14 -56 17 -125 9 -5 -1 -8 -10 -8 -22 0 -26 -22 -20
-35 10 -8 18 -15 21 -40 17 -16 -4 -34 -12 -40 -19 -10 -13 -45 -12 -45 2 0 4
5 12 12 19 6 6 9 15 5 19 -4 4 -13 1 -19 -5 -7 -7 -27 -12 -46 -12 -25 0 -35
-5 -39 -19 -4 -17 -8 -18 -24 -8 -10 6 -19 17 -19 24 0 16 12 17 27 2 7 -7 13
-7 17 -1 10 17 -20 34 -41 24 -60 -31 -71 -34 -91 -23 -27 15 -32 14 -32 -4 0
-17 -12 -19 -27 -4 -5 5 -22 11 -37 13 -16 2 -32 9 -36 16 -7 11 -14 11 -39 0
-18 -7 -49 -10 -71 -7 -22 3 -43 1 -46 -4 -8 -14 -47 -11 -72 7 -13 9 -31 13
-42 9 -16 -5 -20 -2 -20 19 0 27 -9 33 -26 17 -18 -18 -286 -11 -323 8 -13 7
-28 8 -38 3 -10 -5 -31 -6 -48 -2 -16 4 -64 4 -105 2 -41 -2 -92 0 -113 6 -26
7 -35 7 -31 0z m694 -88 c0 -5 13 -10 29 -10 29 0 49 -14 34 -23 -13 -8 -76
17 -81 31 -2 6 1 12 7 12 6 0 11 -4 11 -10z m4839 -24 c-3 -3 -25 -8 -49 -11
l-45 -6 40 20 c24 12 44 16 49 11 5 -6 8 -12 5 -14z m251 7 c0 -5 11 -9 25 -9
13 -1 32 -10 42 -19 16 -17 16 -18 -2 -31 -22 -16 -65 -19 -65 -4 0 6 12 10
26 10 22 0 24 2 14 15 -6 8 -15 14 -18 13 -4 -1 -15 2 -24 6 -19 9 -24 26 -8
26 6 0 10 -3 10 -7z m-3622 -26 c6 3 12 -2 12 -9 0 -11 -18 -14 -80 -14 -44 1
-80 4 -80 8 0 5 6 9 13 9 48 4 81 10 85 14 3 2 12 1 21 -4 9 -5 22 -6 29 -4z
m2112 -12 c-35 -26 -65 -32 -75 -15 -4 6 -15 6 -32 -1 -31 -12 -39 -7 -18 11
9 7 40 14 70 14 29 1 57 4 61 9 4 4 12 7 18 7 5 0 -5 -11 -24 -25z m74 10 c3
-9 0 -15 -9 -15 -8 0 -15 7 -15 15 0 8 4 15 9 15 5 0 11 -7 15 -15z m1075 11
c-2 -2 -17 -6 -34 -10 -22 -5 -26 -4 -15 4 14 9 59 15 49 6z m131 -11 c-7 -8
-17 -12 -22 -9 -6 4 -5 10 3 15 22 14 33 10 19 -6z m-400 -20 c0 -8 -7 -15
-15 -15 -8 0 -15 -4 -15 -10 0 -5 5 -10 10 -10 6 0 10 -5 10 -11 0 -6 -15 -8
-44 -4 -28 5 -46 3 -50 -4 -10 -15 -27 -14 -23 2 3 18 19 27 49 27 20 0 26 4
22 14 -5 13 0 16 49 25 4 0 7 -6 7 -14z m-2566 -4 c3 -4 -7 -14 -22 -21 -22
-11 -24 -14 -9 -17 25 -6 21 -23 -6 -23 -33 0 -37 7 -20 41 14 28 46 39 57 20z
m66 -1 c0 -5 -4 -10 -10 -10 -5 0 -10 5 -10 10 0 6 5 10 10 10 6 0 10 -4 10
-10z m2810 -5 c22 -13 23 -14 5 -15 -11 0 -31 3 -43 7 -18 4 -20 8 -10 14 17
11 18 11 48 -6z m-3055 -5 c3 -5 -1 -10 -9 -10 -8 0 -18 5 -21 10 -3 6 1 10 9
10 8 0 18 -4 21 -10z m2980 1 c-6 -5 -26 -12 -45 -15 -33 -7 -34 -6 -16 9 21
16 77 22 61 6z m216 -6 c0 -6 -10 -12 -23 -13 -19 -4 -20 -2 -9 12 15 17 33
18 32 1z m-1616 -5 c3 -5 1 -10 -4 -10 -6 0 -11 5 -11 10 0 6 2 10 4 10 3 0 8
-4 11 -10z m400 0 c-3 -5 -10 -10 -16 -10 -5 0 -9 5 -9 10 0 6 7 10 16 10 8 0
12 -4 9 -10z m-195 -12 c0 -6 -7 -7 -16 -4 -8 3 -12 2 -9 -3 10 -17 -13 -21
-66 -11 -81 16 -77 25 12 26 47 1 79 -2 79 -8z m450 -9 c0 -13 -15 -18 -38
-13 -29 8 -17 32 14 26 13 -2 24 -8 24 -13z m268 9 c14 -14 16 -32 3 -24 -5 4
-11 2 -13 -2 -1 -5 -19 -11 -38 -15 -19 -3 -29 -3 -22 0 6 2 12 13 12 22 0 10
3 21 7 24 10 11 38 8 51 -5z m-2473 -7 c5 -1 4 -6 -2 -12 -8 -8 -17 -8 -31 0
-10 6 -22 7 -26 4 -3 -3 -6 -1 -6 6 0 7 10 10 28 7 15 -2 31 -5 37 -5z m422 0
c22 19 14 -2 -9 -22 -26 -23 -29 -24 -22 -4 4 8 1 15 -6 15 -6 0 -8 5 -4 11 4
8 9 8 17 0 7 -7 14 -7 24 0z m53 -7 c0 -8 -4 -12 -10 -9 -5 3 -10 10 -10 16 0
5 5 9 10 9 6 0 10 -7 10 -16z m860 1 c0 -8 -7 -15 -15 -15 -16 0 -20 12 -8 23
11 12 23 8 23 -8z m100 11 c0 -3 -4 -8 -10 -11 -5 -3 -10 -1 -10 4 0 6 5 11
10 11 6 0 10 -2 10 -4z m681 -19 c-10 -9 -11 -8 -5 6 3 10 9 15 12 12 3 -3 0
-11 -7 -18z m193 8 c3 -8 2 -15 -3 -15 -5 0 -14 7 -21 15 -10 12 -10 15 3 15
8 0 17 -7 21 -15z m-2081 -9 c10 -8 14 -17 9 -20 -5 -3 -15 1 -22 9 -7 9 -21
13 -31 10 -11 -4 -19 -2 -19 4 0 15 42 13 63 -3z m372 4 c-3 -5 -12 -10 -18
-10 -7 0 -6 4 3 10 19 12 23 12 15 0z m1329 4 c36 -14 12 -25 -49 -23 -36 1
-65 5 -65 10 0 14 86 24 114 13z m926 -4 c0 -5 -5 -10 -11 -10 -5 0 -7 5 -4
10 3 6 8 10 11 10 2 0 4 -4 4 -10z m-3053 -6 c-3 -3 -12 -4 -19 -1 -8 3 -5 6
6 6 11 1 17 -2 13 -5z m1793 -14 c0 -5 -13 -10 -30 -10 -16 0 -30 5 -30 10 0
6 14 10 30 10 17 0 30 -4 30 -10z m60 0 c0 -5 -12 -10 -27 -9 -25 0 -26 1 -8
9 27 12 35 12 35 0z m620 -10 c0 -5 -5 -10 -11 -10 -5 0 -7 5 -4 10 3 6 8 10
11 10 2 0 4 -4 4 -10z m250 -5 c-14 -7 -27 -11 -30 -9 -6 7 22 24 40 23 9 0 5
-6 -10 -14z m110 6 c0 -12 -20 -25 -27 -18 -7 7 6 27 18 27 5 0 9 -4 9 -9z
m801 -2 c-16 -6 -28 -6 -35 1 -7 7 1 10 25 9 32 0 33 -1 10 -10z m-3481 -7 c0
-5 -13 -7 -30 -4 -16 2 -30 6 -30 8 0 2 14 4 30 4 17 0 30 -4 30 -8z m140 -7
c0 -8 5 -15 10 -15 6 0 10 -4 10 -10 0 -17 -29 -11 -50 10 -26 26 -25 30 5 30
16 0 25 -6 25 -15z m55 5 c-27 -12 -35 -12 -35 0 0 6 12 10 28 9 24 0 25 -1 7
-9z m169 -5 c-4 -8 -8 -15 -10 -15 -2 0 -4 7 -4 15 0 8 4 15 10 15 5 0 7 -7 4
-15z m1875 1 c16 -19 -3 -31 -26 -17 -11 6 -13 11 -5 11 7 0 10 5 7 10 -9 15
11 12 24 -4z m-1959 -6 c0 -5 -4 -10 -10 -10 -5 0 -10 5 -10 10 0 6 5 10 10
10 6 0 10 -4 10 -10z m205 0 c-3 -5 -10 -10 -16 -10 -5 0 -9 5 -9 10 0 6 7 10
16 10 8 0 12 -4 9 -10z m3065 3 c0 -5 -5 -15 -10 -23 -9 -13 -11 -13 -20 0
-15 22 -12 30 10 30 11 0 20 -3 20 -7z m-3330 -7 c0 -3 -4 -8 -10 -11 -5 -3
-10 -1 -10 4 0 6 5 11 10 11 6 0 10 -2 10 -4z m1712 -13 c-6 -3 -10 -8 -7 -13
2 -4 -5 -16 -16 -26 -19 -17 -20 -17 -13 2 10 26 36 56 43 48 3 -4 0 -9 -7
-11z m878 7 c0 -5 -5 -10 -11 -10 -5 0 -7 5 -4 10 3 6 8 10 11 10 2 0 4 -4 4
-10z m-2850 -4 c0 -3 -4 -8 -10 -11 -5 -3 -10 -1 -10 4 0 6 5 11 10 11 6 0 10
-2 10 -4z m735 -6 c4 -6 -5 -9 -19 -8 -15 1 -26 6 -26 10 0 12 38 10 45 -2z
m2919 -9 c3 -5 -10 -12 -29 -15 -21 -4 -35 -13 -35 -21 0 -9 -10 -15 -25 -15
-14 0 -25 -4 -25 -10 0 -5 7 -10 15 -10 8 0 15 -4 15 -10 0 -5 -7 -10 -15 -10
-8 0 -15 5 -15 11 0 8 -6 7 -17 -2 -15 -11 -16 -11 -6 0 6 7 9 20 6 27 -3 9 2
14 15 14 12 0 34 11 49 25 29 25 58 32 67 16z m-3374 -11 c0 -14 -51 -33 -59
-23 -4 4 -5 7 -2 6 2 -1 10 4 18 12 17 17 43 20 43 5z m-2960 -55 c0 -12 -19
-12 -23 0 -4 9 -1 12 9 8 7 -3 14 -7 14 -8z m4470 5 c0 -5 -4 -10 -10 -10 -5
0 -10 5 -10 10 0 6 5 10 10 10 6 0 10 -4 10 -10z m1780 -64 c-6 -8 -18 -12
-26 -9 -23 9 -16 23 12 23 22 0 24 -2 14 -14z m-3 -32 c-3 -3 -12 -4 -19 -1
-8 3 -5 6 6 6 11 1 17 -2 13 -5z m82 -88 c7 -8 30 -17 52 -21 21 -4 39 -11 39
-16 0 -13 -37 -11 -45 2 -5 7 -15 5 -30 -5 -24 -16 -43 -7 -30 14 10 16 -23
24 -40 10 -20 -16 -19 -6 1 14 19 20 38 20 53 2z m62 -269 c-7 -7 -15 -6 -26
3 -12 10 -13 15 -3 21 17 11 42 -11 29 -24z m-6421 -37 c0 -5 -2 -10 -4 -10
-3 0 -8 5 -11 10 -3 6 -1 10 4 10 6 0 11 -4 11 -10z m6390 -80 c0 -5 -2 -10
-4 -10 -3 0 -8 5 -11 10 -3 6 -1 10 4 10 6 0 11 -4 11 -10z m27 -29 c9 8 13 8
13 1 0 -13 -21 -21 -37 -14 -7 2 -13 9 -13 15 0 8 4 7 12 -1 8 -8 15 -9 25 -1z
m103 -80 c0 -11 -40 -22 -52 -15 -5 3 -6 10 -3 15 8 12 55 12 55 0z"></path>
<path d="M6624 1339 c-19 -21 -19 -21 11 -17 18 2 30 9 30 17 0 23 -20 23 -41
0z"></path>
<path d="M132 1330 c-7 -11 -9 -20 -4 -20 10 0 32 22 32 32 0 15 -15 8 -28
-12z"></path>
<path d="M5546 1333 c-8 -9 14 -33 30 -33 8 0 14 3 14 8 0 11 -37 32 -44 25z"></path>
<path d="M6695 1310 c-3 -5 1 -10 9 -10 9 0 16 5 16 10 0 6 -4 10 -9 10 -6 0
-13 -4 -16 -10z"></path>
<path d="M3000 1290 c0 -16 42 -22 56 -9 11 12 8 14 -21 16 -19 1 -35 -2 -35
-7z"></path>
<path d="M3323 1293 c-36 -5 -47 -33 -14 -33 11 0 23 -5 26 -10 4 -6 11 -8 16
-4 5 3 7 10 3 15 -3 5 0 16 6 24 7 8 9 14 4 13 -5 0 -24 -3 -41 -5z"></path>
<path d="M3470 1280 c0 -5 4 -10 9 -10 6 0 13 5 16 10 3 6 -1 10 -9 10 -9 0
-16 -4 -16 -10z"></path>
<path d="M4345 1279 c-11 -17 1 -21 15 -4 8 9 8 15 2 15 -6 0 -14 -5 -17 -11z"></path>
<path d="M4960 1280 c0 -13 11 -13 30 0 12 8 11 10 -7 10 -13 0 -23 -4 -23
-10z"></path>
<path d="M6760 1280 c0 -6 7 -10 15 -10 8 0 15 2 15 4 0 2 -7 6 -15 10 -8 3
-15 1 -15 -4z"></path>
<path d="M6776 1231 c-4 -7 -5 -15 -2 -18 9 -9 19 4 14 18 -4 11 -6 11 -12 0z"></path>
<path d="M6900 1199 c0 -5 5 -7 10 -4 6 3 10 8 10 11 0 2 -4 4 -10 4 -5 0 -10
-5 -10 -11z"></path>
<path d="M6538 1163 c7 -3 16 -2 19 1 4 3 -2 6 -13 5 -11 0 -14 -3 -6 -6z"></path>
<path d="M6858 1163 c7 -3 16 -2 19 1 4 3 -2 6 -13 5 -11 0 -14 -3 -6 -6z"></path>
<path d="M6671 1146 c-9 -11 -5 -15 24 -20 20 -4 43 -10 51 -13 8 -3 14 0 14
6 0 6 -12 14 -27 17 -16 4 -33 11 -39 16 -7 5 -16 3 -23 -6z"></path>
<path d="M141 1136 c-8 -10 -9 -16 -1 -21 13 -8 30 3 30 21 0 18 -14 18 -29 0z"></path>
<path d="M6612 1121 c2 -7 7 -12 11 -12 12 1 9 15 -3 20 -7 2 -11 -2 -8 -8z"></path>
<path d="M6775 1100 c-8 -13 5 -13 25 0 13 8 13 10 -2 10 -9 0 -20 -4 -23 -10z"></path>
<path d="M6683 1054 c-13 -14 -23 -29 -23 -34 0 -5 -11 -12 -25 -16 -14 -3
-25 -10 -25 -15 0 -12 17 -11 39 3 15 9 24 8 45 -6 15 -9 31 -14 36 -11 18 11
10 22 -21 31 -37 11 -35 30 4 27 23 -1 28 3 25 20 -4 30 -29 30 -55 1z"></path>
<path d="M6910 1060 c0 -5 5 -10 10 -10 6 0 10 5 10 10 0 6 -4 10 -10 10 -5 0
-10 -4 -10 -10z"></path>
<path d="M6810 1000 c0 -5 5 -10 10 -10 6 0 10 5 10 10 0 6 -4 10 -10 10 -5 0
-10 -4 -10 -10z"></path>
<path d="M6667 954 c6 -16 19 -18 27 -5 3 5 -3 11 -13 14 -14 3 -18 1 -14 -9z"></path>
<path d="M6755 960 c-3 -5 1 -10 9 -10 9 0 16 5 16 10 0 6 -4 10 -9 10 -6 0
-13 -4 -16 -10z"></path>
<path d="M6628 936 c-22 -16 -23 -26 -3 -26 8 0 19 9 25 20 12 23 3 25 -22 6z"></path>
<path d="M6792 904 c9 -9 21 -13 28 -9 14 9 -5 25 -30 25 -12 0 -12 -3 2 -16z"></path>
<path d="M6655 900 c3 -5 8 -10 11 -10 2 0 4 5 4 10 0 6 -5 10 -11 10 -5 0 -7
-4 -4 -10z"></path>
<path d="M141 859 c9 -17 13 -19 19 -8 11 16 4 29 -16 29 -12 0 -13 -4 -3 -21z"></path>
<path d="M6815 840 c-3 -5 1 -10 9 -10 9 0 16 5 16 10 0 6 -4 10 -9 10 -6 0
-13 -4 -16 -10z"></path>
<path d="M6775 830 c-3 -5 -1 -10 4 -10 6 0 11 5 11 10 0 6 -2 10 -4 10 -3 0
-8 -4 -11 -10z"></path>
<path d="M6825 810 c-3 -5 1 -10 9 -10 9 0 16 5 16 10 0 6 -4 10 -9 10 -6 0
-13 -4 -16 -10z"></path>
<path d="M6700 789 c0 -5 5 -7 10 -4 6 3 10 8 10 11 0 2 -4 4 -10 4 -5 0 -10
-5 -10 -11z"></path>
<path d="M6788 773 c6 -2 18 -2 25 0 6 3 1 5 -13 5 -14 0 -19 -2 -12 -5z"></path>
<path d="M75 760 c3 -5 8 -10 11 -10 2 0 4 5 4 10 0 6 -5 10 -11 10 -5 0 -7
-4 -4 -10z"></path>
<path d="M118 754 c-8 -7 3 -44 13 -44 4 0 10 3 13 8 5 9 -19 44 -26 36z"></path>
<path d="M6672 741 c13 -21 52 -29 63 -12 7 12 -1 17 -43 26 -32 7 -33 6 -20
-14z"></path>
<path d="M6775 730 c-8 -13 5 -13 25 0 13 8 13 10 -2 10 -9 0 -20 -4 -23 -10z"></path>
<path d="M6850 715 c0 -9 5 -15 11 -13 6 2 11 8 11 13 0 5 -5 11 -11 13 -6 2
-11 -4 -11 -13z"></path>
<path d="M6896 717 c3 -10 9 -15 12 -12 3 3 0 11 -7 18 -10 9 -11 8 -5 -6z"></path>
<path d="M6656 701 c-3 -5 1 -11 9 -15 8 -3 15 -1 15 4 0 13 -18 22 -24 11z"></path>
<path d="M90 690 c0 -5 5 -10 11 -10 5 0 7 5 4 10 -3 6 -8 10 -11 10 -2 0 -4
-4 -4 -10z"></path>
<path d="M6755 657 c10 -8 15 -19 11 -25 -9 -15 -1 -15 25 -2 33 18 23 40 -18
40 -33 0 -35 -1 -18 -13z"></path>
<path d="M6880 605 c0 -16 6 -25 15 -25 16 0 19 9 9 34 -9 25 -24 19 -24 -9z"></path>
<path d="M6975 570 c-3 -5 1 -10 10 -10 9 0 13 5 10 10 -3 6 -8 10 -10 10 -2
0 -7 -4 -10 -10z"></path>
<path d="M6810 559 c0 -16 -31 -38 -55 -39 -17 0 -17 -2 -5 -10 13 -9 83 -6
117 5 16 5 5 35 -13 35 -8 0 -14 -4 -14 -10 0 -5 -6 -10 -14 -10 -9 0 -12 7
-9 20 3 11 3 20 -1 20 -3 0 -6 -5 -6 -11z"></path>
<path d="M72 528 c-19 -19 -14 -30 8 -18 11 6 20 15 20 20 0 14 -14 12 -28 -2z"></path>
<path d="M6787 471 c3 -10 0 -22 -6 -25 -25 -16 -10 -27 27 -20 20 4 39 8 41
10 4 4 -51 53 -61 54 -3 0 -4 -8 -1 -19z"></path>
<path d="M110 465 c0 -8 5 -15 10 -15 6 0 10 7 10 15 0 8 -4 15 -10 15 -5 0
-10 -7 -10 -15z"></path>
<path d="M6910 470 c0 -6 7 -10 15 -10 8 0 15 2 15 4 0 2 -7 6 -15 10 -8 3
-15 1 -15 -4z"></path>
<path d="M6807 399 c-14 -8 -16 -14 -6 -25 11 -14 41 -19 51 -8 9 9 -3 44 -16
44 -6 0 -19 -5 -29 -11z"></path>
<path d="M5 351 c-3 -6 3 -15 14 -21 12 -6 22 -6 26 -1 3 6 -3 15 -14 21 -12
6 -22 6 -26 1z"></path>
<path d="M6852 322 c-9 -3 -7 -9 8 -19 13 -9 25 -12 31 -6 11 11 -21 32 -39
25z"></path>
<path d="M6545 21 c-10 -17 12 -21 25 -6 10 12 10 15 -3 15 -9 0 -18 -4 -22
-9z"></path>
</g>
</svg>